<svg width="44" height="45" viewBox="0 0 44 45" fill="none" xmlns="http://www.w3.org/2000/svg">
<rect y="0.5" width="44" height="44" rx="8" fill="#029FAE"/>
<path d="M12.75 13.75L14.83 14.11L15.793 25.583C15.83 26.0345 16.0358 26.4554 16.3695 26.7618C16.7031 27.0682 17.14 27.2375 17.593 27.236H28.503C28.9367 27.2365 29.3561 27.0803 29.6838 26.7963C30.0116 26.5122 30.2258 26.1194 30.287 25.69L31.237 19.132C31.2623 18.9576 31.253 18.7799 31.2096 18.6091C31.1662 18.4383 31.0896 18.2777 30.9841 18.1365C30.8786 17.9954 30.7463 17.8764 30.5947 17.7864C30.4432 17.6964 30.2754 17.6371 30.101 17.612C30.037 17.605 15.164 17.6 15.164 17.6" stroke="white" stroke-width="1.5" stroke-linecap="round" stroke-linejoin="round"/>
<path d="M24.125 21.2949H26.898" stroke="white" stroke-width="1.5" stroke-linecap="round" stroke-linejoin="round"/>
<path fill-rule="evenodd" clip-rule="evenodd" d="M17.154 30.7029C17.2273 30.6997 17.3006 30.7115 17.3692 30.7374C17.4379 30.7633 17.5007 30.8028 17.5537 30.8536C17.6067 30.9043 17.6488 30.9653 17.6777 31.0328C17.7065 31.1004 17.7213 31.173 17.7213 31.2464C17.7213 31.3198 17.7065 31.3924 17.6777 31.46C17.6488 31.5275 17.6067 31.5884 17.5537 31.6392C17.5007 31.69 17.4379 31.7295 17.3692 31.7554C17.3006 31.7813 17.2273 31.793 17.154 31.7899C17.0139 31.7839 16.8815 31.724 16.7845 31.6227C16.6875 31.5215 16.6333 31.3866 16.6333 31.2464C16.6333 31.1062 16.6875 30.9713 16.7845 30.8701C16.8815 30.7688 17.0139 30.7089 17.154 30.7029Z" fill="white" stroke="white" stroke-width="1.5" stroke-linecap="round" stroke-linejoin="round"/>
<path fill-rule="evenodd" clip-rule="evenodd" d="M28.435 30.7029C28.5795 30.7029 28.7181 30.7603 28.8204 30.8625C28.9226 30.9647 28.98 31.1033 28.98 31.2479C28.98 31.3924 28.9226 31.531 28.8204 31.6333C28.7181 31.7355 28.5795 31.7929 28.435 31.7929C28.2904 31.7929 28.1518 31.7355 28.0496 31.6333C27.9474 31.531 27.89 31.3924 27.89 31.2479C27.89 31.1033 27.9474 30.9647 28.0496 30.8625C28.1518 30.7603 28.2904 30.7029 28.435 30.7029Z" fill="white" stroke="white" stroke-width="1.5" stroke-linecap="round" stroke-linejoin="round"/>
</svg>
