<svg width="40" height="40" viewBox="0 0 40 40" fill="none" xmlns="http://www.w3.org/2000/svg">
<g clip-path="url(#clip0_1_1587)">
<path d="M39.9938 19.7462C39.9286 18.4431 39.3566 17.2171 38.3999 16.3299C37.4432 15.4427 36.1776 14.9646 34.8732 14.9977C33.5689 15.0308 32.3292 15.5724 31.4187 16.507C30.5082 17.4415 29.9991 18.695 30 19.9997V28.3331C30 27.891 29.8244 27.4671 29.5119 27.1546C29.1993 26.842 28.7754 26.6664 28.3334 26.6664H11.6667C11.2246 26.6664 10.8007 26.842 10.4882 27.1546C10.1756 27.4671 10 27.891 10 28.3331V19.9997C9.99995 19.0831 9.7479 18.1841 9.27142 17.401C8.79494 16.618 8.11236 15.9809 7.29829 15.5596C6.48422 15.1382 5.56998 14.9488 4.65551 15.012C3.74104 15.0751 2.86153 15.3884 2.11311 15.9177C1.36469 16.4469 0.77616 17.1717 0.411849 18.0129C0.0475391 18.854 -0.0785313 19.7791 0.0474178 20.6871C0.173367 21.595 0.546488 22.4509 1.126 23.1611C1.70551 23.8713 2.46911 24.4086 3.33333 24.7141V33.3331C3.33333 33.7751 3.50893 34.199 3.82149 34.5116C4.13405 34.8241 4.55797 34.9997 5 34.9997H6.66667V38.3331H10V34.9997H30V38.3331H33.3334V34.9997H35C35.4421 34.9997 35.866 34.8241 36.1786 34.5116C36.4911 34.199 36.6667 33.7751 36.6667 33.3331V24.7141C37.6824 24.3549 38.5549 23.6772 39.1544 22.7821C39.7539 21.887 40.0483 20.8222 39.9938 19.7462Z" fill="#029FAE"/>
<path d="M11.6667 19.9998V24.9998H28.3334V19.9998C28.3353 18.5223 28.8271 17.087 29.7319 15.9189C30.6366 14.7507 31.9032 13.9156 33.3334 13.5442V9.99984C33.3309 7.79046 32.4521 5.67229 30.8899 4.11002C29.3276 2.54776 27.2094 1.66899 25 1.6665H15C12.7907 1.66899 10.6725 2.54776 9.11022 4.11002C7.54796 5.67229 6.66919 7.79046 6.66671 9.99984V13.5442C8.09684 13.9156 9.36346 14.7507 10.2682 15.9189C11.173 17.087 11.6648 18.5223 11.6667 19.9998ZM23.3334 8.33317C23.663 8.33317 23.9852 8.43092 24.2593 8.61405C24.5334 8.79719 24.747 9.05749 24.8732 9.36203C24.9993 9.66657 25.0323 10.0017 24.968 10.325C24.9037 10.6483 24.745 10.9453 24.5119 11.1783C24.2788 11.4114 23.9818 11.5702 23.6585 11.6345C23.3352 11.6988 23.0001 11.6658 22.6956 11.5396C22.391 11.4135 22.1307 11.1999 21.9476 10.9258C21.7645 10.6517 21.6667 10.3295 21.6667 9.99984C21.6667 9.55781 21.8423 9.13389 22.1549 8.82132C22.4674 8.50876 22.8913 8.33317 23.3334 8.33317ZM23.3334 13.3332C23.663 13.3332 23.9852 13.4309 24.2593 13.6141C24.5334 13.7972 24.747 14.0575 24.8732 14.362C24.9993 14.6666 25.0323 15.0017 24.968 15.325C24.9037 15.6483 24.745 15.9453 24.5119 16.1783C24.2788 16.4114 23.9818 16.5702 23.6585 16.6345C23.3352 16.6988 23.0001 16.6658 22.6956 16.5396C22.391 16.4135 22.1307 16.1999 21.9476 15.9258C21.7645 15.6517 21.6667 15.3295 21.6667 14.9998C21.6667 14.5578 21.8423 14.1339 22.1549 13.8213C22.4674 13.5088 22.8913 13.3332 23.3334 13.3332ZM16.6667 8.33317C16.9963 8.33317 17.3186 8.43092 17.5927 8.61405C17.8667 8.79719 18.0804 9.05749 18.2065 9.36203C18.3326 9.66657 18.3657 10.0017 18.3013 10.325C18.237 10.6483 18.0783 10.9453 17.8452 11.1783C17.6121 11.4114 17.3152 11.5702 16.9919 11.6345C16.6686 11.6988 16.3334 11.6658 16.0289 11.5396C15.7244 11.4135 15.4641 11.1999 15.2809 10.9258C15.0978 10.6517 15 10.3295 15 9.99984C15 9.55781 15.1756 9.13389 15.4882 8.82132C15.8008 8.50876 16.2247 8.33317 16.6667 8.33317ZM16.6667 13.3332C16.9963 13.3332 17.3186 13.4309 17.5927 13.6141C17.8667 13.7972 18.0804 14.0575 18.2065 14.362C18.3326 14.6666 18.3657 15.0017 18.3013 15.325C18.237 15.6483 18.0783 15.9453 17.8452 16.1783C17.6121 16.4114 17.3152 16.5702 16.9919 16.6345C16.6686 16.6988 16.3334 16.6658 16.0289 16.5396C15.7244 16.4135 15.4641 16.1999 15.2809 15.9258C15.0978 15.6517 15 15.3295 15 14.9998C15 14.5578 15.1756 14.1339 15.4882 13.8213C15.8008 13.5088 16.2247 13.3332 16.6667 13.3332Z" fill="#029FAE"/>
</g>
<defs>
<clipPath id="clip0_1_1587">
<rect width="40" height="40" fill="white"/>
</clipPath>
</defs>
</svg>
